<!DOCTYPE svg PUBLIC "-//W3C//DTD SVG 1.1//EN" "http://www.w3.org/Graphics/SVG/1.1/DTD/svg11.dtd">
<!-- Uploaded to: SVG Repo, www.svgrepo.com, Transformed by: SVG Repo Mixer Tools -->
<svg width="800px" height="800px" viewBox="0 -4 64 64" version="1.1" xmlns="http://www.w3.org/2000/svg" xmlns:xlink="http://www.w3.org/1999/xlink" xmlns:sketch="http://www.bohemiancoding.com/sketch/ns" fill="#000000">
<g id="SVGRepo_bgCarrier" stroke-width="0"/>
<g id="SVGRepo_tracerCarrier" stroke-linecap="round" stroke-linejoin="round"/>
<g id="SVGRepo_iconCarrier"> <title>Headset</title> <desc>Created with Sketch.</desc> <defs> </defs> <g id="Page-1" stroke="none" stroke-width="1" fill="none" fill-rule="evenodd" sketch:type="MSPage"> <g id="Headset" sketch:type="MSLayerGroup" transform="translate(1.000000, 1.000000)" stroke="#a33e3e" stroke-width="2"> <path d="M9,23 C9,8.9 17.2,0 31,0 C44.8,0 53,8.8 53,23" id="Shape" sketch:type="MSShapeGroup"> </path> <path d="M9.2,41 C4.1,41 0,37 0,32 C0,27 4.1,23 9.2,23 C14.2,23 14.2,41 9.2,41 L9.2,41 Z" id="Shape" sketch:type="MSShapeGroup"> </path> <path d="M52.8,41 C57.9,41 62,37 62,32 C62,27 57.9,23 52.8,23 C47.8,23 47.8,41 52.8,41 L52.8,41 Z" id="Shape" sketch:type="MSShapeGroup"> </path> <path d="M54,41.1 C54,50.6 42.3,49.9 39.1,49.9" id="Shape" sketch:type="MSShapeGroup"> </path> <ellipse id="Oval" sketch:type="MSShapeGroup" cx="33.5" cy="50" rx="5.5" ry="4"> </ellipse> <path d="M4.1,39 C4.1,39 8.5,31.9 4.1,25.1" id="Shape" sketch:type="MSShapeGroup"> </path> <path d="M58,25.1 C58,25.1 53.6,32.2 58,39" id="Shape" sketch:type="MSShapeGroup"> </path> </g> </g> </g>
</svg>