<!DOCTYPE svg PUBLIC "-//W3C//DTD SVG 1.1//EN" "http://www.w3.org/Graphics/SVG/1.1/DTD/svg11.dtd">
<!-- Uploaded to: SVG Repo, www.svgrepo.com, Transformed by: SVG Repo Mixer Tools -->
<svg version="1.1" id="Layer_1" xmlns:sketch="http://www.bohemiancoding.com/sketch/ns" xmlns="http://www.w3.org/2000/svg" xmlns:xlink="http://www.w3.org/1999/xlink" width="800px" height="800px" viewBox="0 0 64 56" enable-background="new 0 0 64 56" xml:space="preserve" fill="#000000">
<g id="SVGRepo_bgCarrier" stroke-width="0"/>
<g id="SVGRepo_tracerCarrier" stroke-linecap="round" stroke-linejoin="round"/>
<g id="SVGRepo_iconCarrier"> <title>Shake-hand</title> <desc>Created with Sketch.</desc> <g id="Page-1" sketch:type="MSPage"> <g id="Shake-hand" transform="translate(1.000000, 1.000000)" sketch:type="MSLayerGroup"> <path id="Shape_3_" sketch:type="MSShapeGroup" fill="none" stroke="#a33e3e" stroke-width="2" d="M12.3,32.2 c-1.6,2.1-2.7,3.5-2.7,3.5c-0.7,0.7-0.7,1.9,0,2.6l14.3,14.3c0.7,0.7,1.9,0.7,2.6,0c0,0,1.4-0.9,3.8-2.8"/> <path id="Shape_4_" sketch:type="MSShapeGroup" fill="none" stroke="#a33e3e" stroke-width="2" d="M25.9,45.4L21.2,50"/> <path id="Shape_5_" sketch:type="MSShapeGroup" fill="none" stroke="#a33e3e" stroke-width="2" d="M21.3,40.8l-4.6,4.7"/> <path id="Shape_6_" sketch:type="MSShapeGroup" fill="none" stroke="#a33e3e" stroke-width="2" d="M16.8,36.3l-4.6,4.6"/> <path id="Shape_7_" sketch:type="MSShapeGroup" fill="none" stroke="#a33e3e" stroke-width="2" stroke-linecap="round" d=" M38.4,20.4c1.3,1.3,12.9,15.3,12.9,15.3c0.7,0.7,0.7,1.9,0,2.6L37,52.6c-0.7,0.7-1.9,0.7-2.6,0c0,0-8.4-5.8-20.1-17.5 c-4.5-4.5-6.5-10.3-5.8-11L22.8,9.8c0.5-0.5,4,0.3,7.2,1.9"/> <path id="Shape_8_" sketch:type="MSShapeGroup" fill="none" stroke="#a33e3e" stroke-width="2" stroke-linecap="round" d=" M48.9,32.3c2.8-3.8,4-7.6,3.4-8.2L38,9.8c-0.7-0.7-7.1,0.6-11.7,5.2c-1.9,1.9-6.2,4.9-8.3,9.8c0,0,1.1,1.9,4,0.8 c4.8-1.8,8.1-3.6,8.1-3.6s5,2,8.1-1.5"/> <path id="Shape_9_" sketch:type="MSShapeGroup" fill="none" stroke="#a33e3e" stroke-width="2" d="M25.5,4.4 c0.7,0.7,0.7,1.9,0,2.6L7,25.5c-0.7,0.7-1.9,0.7-2.6,0l-3.9-3.9c-0.7-0.7-0.7-1.9,0-2.6L19,0.5c0.7-0.7,1.9-0.7,2.6,0L25.5,4.4 L25.5,4.4z"/> <path id="Shape_10_" sketch:type="MSShapeGroup" fill="none" stroke="#a33e3e" stroke-width="2" d="M35.7,4.8 c-0.7,0.7-0.7,1.9,0,2.6L54.3,26c0.7,0.7,1.9,0.7,2.6,0l3.9-3.9c0.7-0.7,0.7-1.9,0-2.6L42.2,0.9c-0.7-0.7-1.9-0.7-2.6,0L35.7,4.8 L35.7,4.8z"/> <path id="Shape" sketch:type="MSShapeGroup" fill="none" stroke="#a33e3e" stroke-width="2" d="M27.9,38.4L39.6,50"/> <path id="Shape_1_" sketch:type="MSShapeGroup" fill="none" stroke="#a33e3e" stroke-width="2" d="M32.5,33.8l11.6,11.7"/> <path id="Shape_2_" sketch:type="MSShapeGroup" fill="none" stroke="#a33e3e" stroke-width="2" d="M37,29.3l11.6,11.6"/> </g> </g> </g>
</svg>