<!DOCTYPE svg PUBLIC "-//W3C//DTD SVG 1.1//EN" "http://www.w3.org/Graphics/SVG/1.1/DTD/svg11.dtd">
<!-- Uploaded to: SVG Repo, www.svgrepo.com, Transformed by: SVG Repo Mixer Tools -->
<svg version="1.1" id="Layer_1" xmlns:sketch="http://www.bohemiancoding.com/sketch/ns" xmlns="http://www.w3.org/2000/svg" xmlns:xlink="http://www.w3.org/1999/xlink" width="800px" height="800px" viewBox="0 0 56 65" enable-background="new 0 0 56 65" xml:space="preserve" fill="#000000">
<g id="SVGRepo_bgCarrier" stroke-width="0"/>
<g id="SVGRepo_tracerCarrier" stroke-linecap="round" stroke-linejoin="round"/>
<g id="SVGRepo_iconCarrier"> <title>Clipboard-checked</title> <desc>Created with Sketch.</desc> <g id="Page-1" sketch:type="MSPage"> <g id="Clipboard-checked" transform="translate(1.000000, 1.000000)" sketch:type="MSLayerGroup"> <g id="Group" sketch:type="MSShapeGroup"> <path id="Shape" fill="none" stroke="#a33e3e" stroke-width="2" d="M44,57.1v3c0,1.1-0.9,2-2,2H2c-1.1,0-2-0.9-2-2v-51 c0-1.1,0.9-2,2-2h10.9"/> <path id="Shape_1_" fill="none" stroke="#a33e3e" stroke-width="2" d="M30.8,7.1H42c1.1,0,2,0.9,2,2v39.8"/> <path id="Shape_3_" fill="none" stroke="#a33e3e" stroke-width="2" d="M38.3,56.1H7c-1.1,0-2-0.9-2-2v-40c0-1.1,0.9-2,2-2h6"/> <path id="Shape_4_" fill="none" stroke="#a33e3e" stroke-width="2" d="M30.8,12.1h6.3c1.1,0,2,0.9,2,2v34.2"/> <path id="Shape_2_" fill="none" stroke="#a33e3e" stroke-width="2" stroke-linejoin="round" d="M28.8,5.1l-3-1c0-2.2-1.8-4-4-4 s-4,1.8-4,4l-3,1c-1.1,0-2,0.9-2,2v5c0,1.1,0.9,2,2,2h13.9c1.1,0,2-0.9,2-2v-5C30.8,6,29.9,5.1,28.8,5.1L28.8,5.1z"/> <path id="Shape_5_" fill="none" stroke="#a33e3e" stroke-width="2" d="M10,22.1h20.8"/> <path id="Shape_6_" fill="none" stroke="#a33e3e" stroke-width="2" d="M10,28.1h11.8"/> <path id="Shape_7_" fill="none" stroke="#a33e3e" stroke-width="2" d="M10,33.1h22.8"/> <path id="Shape_8_" fill="none" stroke="#a33e3e" stroke-width="2" d="M10,40.1h16.8"/> <path id="Shape_9_" fill="none" stroke="#a33e3e" stroke-width="2" d="M23,48.1h9.8"/> </g> <path id="Shape_10_" sketch:type="MSShapeGroup" fill="none" stroke="#a33e3e" stroke-width="2" d="M53.7,46.1l-2.8-2.8 c-0.4-0.4-1-0.4-1.4,0l-7.7,7.8l-3.5-3.5c-0.4-0.4-1-0.4-1.4,0l-2.8,2.8c-0.4,0.4-0.4,1,0,1.4l7,7.1c0.4,0.4,1,0.4,1.4,0 l11.2-11.3C54.1,47.1,54.1,46.5,53.7,46.1L53.7,46.1z"/> </g> </g> </g>
</svg>