<!DOCTYPE svg PUBLIC "-//W3C//DTD SVG 1.1//EN" "http://www.w3.org/Graphics/SVG/1.1/DTD/svg11.dtd">
<!-- Uploaded to: SVG Repo, www.svgrepo.com, Transformed by: SVG Repo Mixer Tools -->
<svg width="800px" height="800px" viewBox="0 -11 64 64" version="1.1" xmlns="http://www.w3.org/2000/svg" xmlns:xlink="http://www.w3.org/1999/xlink" xmlns:sketch="http://www.bohemiancoding.com/sketch/ns" fill="#000000">
<g id="SVGRepo_bgCarrier" stroke-width="0"/>
<g id="SVGRepo_tracerCarrier" stroke-linecap="round" stroke-linejoin="round"/>
<g id="SVGRepo_iconCarrier"> <title>arrow-big-two-way-left-right</title> <desc>Created with Sketch.</desc> <defs> </defs> <g id="Page-1" stroke="none" stroke-width="1" fill="none" fill-rule="evenodd" sketch:type="MSPage"> <g id="arrow-big-two-way-left-right" sketch:type="MSLayerGroup" transform="translate(1.000000, 1.000000)" stroke="#a33e3e" stroke-width="2"> <path d="M16.9,6 L16.9,0.8 C16.9,0.4 16.6,0.1 16.2,0.1 L0.7,10.1 C0.3,10.4 0,11.2 0,11.5 L0,11.5 C0,11.5 0.3,12.7 0.7,13 L16.2,23.1 C16.6,23.1 16.9,22.8 16.9,22.4 L16.9,17.1" id="Shape" sketch:type="MSShapeGroup"> </path> <path d="M15.1,6 L32.9,6 L32.9,17.1 L15,17.1" id="Shape" sketch:type="MSShapeGroup"> </path> <path d="M45,21.9 L45,16.7 C45,16.3 45.3,16 45.7,16 L61.2,26 C61.6,26.3 61.9,27.1 61.9,27.4 L61.9,27.4 C61.9,27.4 61.6,28.6 61.2,28.9 L45.7,39.1 C45.3,39.1 45,38.8 45,38.4 L45,33.1" id="Shape" sketch:type="MSShapeGroup"> </path> <path d="M46.8,22.1 L28.9,22.1 L28.9,33.1 L46.9,33.1" id="Shape" sketch:type="MSShapeGroup"> </path> </g> </g> </g>
</svg>