<!DOCTYPE svg PUBLIC "-//W3C//DTD SVG 1.1//EN" "http://www.w3.org/Graphics/SVG/1.1/DTD/svg11.dtd">
<!-- Uploaded to: SVG Repo, www.svgrepo.com, Transformed by: SVG Repo Mixer Tools -->
<svg version="1.1" id="Layer_1" xmlns:sketch="http://www.bohemiancoding.com/sketch/ns" xmlns="http://www.w3.org/2000/svg" xmlns:xlink="http://www.w3.org/1999/xlink" width="800px" height="800px" viewBox="0 0 46 64" enable-background="new 0 0 46 64" xml:space="preserve" fill="#000000">
<g id="SVGRepo_bgCarrier" stroke-width="0"/>
<g id="SVGRepo_tracerCarrier" stroke-linecap="round" stroke-linejoin="round"/>
<g id="SVGRepo_iconCarrier"> <title>Light-house</title> <desc>Created with Sketch.</desc> <g id="Page-1" sketch:type="MSPage"> <g id="Light-house" transform="translate(1.000000, 2.000000)" sketch:type="MSLayerGroup"> <g id="Group" transform="translate(14.000000, 11.000000)" sketch:type="MSShapeGroup"> <path id="Shape" fill="none" stroke="#a33e3e" stroke-width="2" stroke-linejoin="round" d="M16,10.9V0.1"/> <path id="Shape_1_" fill="none" stroke="#a33e3e" stroke-width="2" stroke-linejoin="round" d="M0,0.1v10.8"/> </g> <path id="Shape_2_" sketch:type="MSShapeGroup" fill="none" stroke="#a33e3e" stroke-width="2" stroke-linejoin="round" d="M14,26 h-3v-5h22v5h-3"/> <path id="Shape_3_" sketch:type="MSShapeGroup" fill="none" stroke="#a33e3e" stroke-width="2" stroke-linejoin="round" d="M16,12 H9L22,0l13,12h-7"/> <path id="Shape_8_" sketch:type="MSShapeGroup" fill="none" stroke="#a33e3e" stroke-width="2" stroke-linecap="round" stroke-linejoin="round" d=" M0,13l8,2"/> <path id="Shape_9_" sketch:type="MSShapeGroup" fill="none" stroke="#a33e3e" stroke-width="2" stroke-linecap="round" stroke-linejoin="round" d=" M0,21l8-2"/> <path id="Shape_10_" sketch:type="MSShapeGroup" fill="none" stroke="#a33e3e" stroke-width="2" stroke-linecap="round" stroke-linejoin="round" d=" M44,21l-8-2"/> <path id="Shape_11_" sketch:type="MSShapeGroup" fill="none" stroke="#a33e3e" stroke-width="2" stroke-linecap="round" stroke-linejoin="round" d=" M44,13l-8,2"/> <path id="Shape_12_" sketch:type="MSShapeGroup" fill="none" stroke="#a33e3e" stroke-width="2" stroke-linejoin="round" d=" M30,24l4,37H10l4-37"/> <path id="Shape_13_" sketch:type="MSShapeGroup" fill="none" stroke="#a33e3e" stroke-width="2" stroke-linejoin="round" d=" M19,60v-4c0-1.1,0.9-2,2-2h2c1.1,0,2,0.9,2,2v4"/> </g> </g> <line fill="none" stroke="#a33e3e" stroke-width="2" stroke-linejoin="round" x1="14.448" y1="32.16" x2="31.333" y2="32.16"/> <line fill="none" stroke="#a33e3e" stroke-width="2" stroke-linejoin="round" x1="14.448" y1="37.16" x2="31.542" y2="37.16"/> <line fill="none" stroke="#a33e3e" stroke-width="2" stroke-linejoin="round" x1="12.664" y1="45.16" x2="33.073" y2="45.16"/> <line fill="none" stroke="#a33e3e" stroke-width="2" stroke-linejoin="round" x1="12.664" y1="50.16" x2="33.325" y2="50.16"/> </g>
</svg>