<svg xmlns="http://www.w3.org/2000/svg" xmlns:xlink="http://www.w3.org/1999/xlink" width="100" zoomAndPan="magnify" viewBox="0 0 75 74.999997" height="100" preserveAspectRatio="xMidYMid meet" version="1.0"><defs><g/></defs><g fill="#a33e3e" fill-opacity="1"><g transform="translate(27.69367, 68.031149)"><g><path d="M 1.390625 -46.171875 L 6.734375 -46.171875 C 8.085938 -46.171875 9.582031 -46.25 11.21875 -46.40625 C 12.851562 -46.5625 14.484375 -46.710938 16.109375 -46.859375 C 17.742188 -47.015625 19.238281 -47.09375 20.59375 -47.09375 C 22.226562 -47.09375 23.789062 -46.953125 25.28125 -46.671875 C 26.769531 -46.398438 28.097656 -45.929688 29.265625 -45.265625 C 30.441406 -44.609375 31.367188 -43.738281 32.046875 -42.65625 C 32.722656 -41.582031 33.0625 -40.226562 33.0625 -38.59375 C 33.0625 -36.875 32.679688 -35.398438 31.921875 -34.171875 C 31.171875 -32.941406 30.171875 -31.882812 28.921875 -31 C 27.679688 -30.125 26.320312 -29.378906 24.84375 -28.765625 C 23.363281 -28.148438 21.882812 -27.59375 20.40625 -27.09375 C 18.925781 -26.601562 17.5625 -26.132812 16.3125 -25.6875 C 15.070312 -25.25 14.070312 -24.765625 13.3125 -24.234375 C 12.5625 -23.710938 12.1875 -23.082031 12.1875 -22.34375 C 12.1875 -21.820312 12.335938 -21.488281 12.640625 -21.34375 C 12.953125 -21.207031 13.25 -21.140625 13.53125 -21.140625 C 14.175781 -21.140625 14.96875 -21.378906 15.90625 -21.859375 C 16.84375 -22.335938 17.910156 -22.804688 19.109375 -23.265625 C 20.316406 -23.734375 21.65625 -23.96875 23.125 -23.96875 C 25.5 -23.96875 27.65625 -23.488281 29.59375 -22.53125 C 31.53125 -21.570312 33.078125 -20.226562 34.234375 -18.5 C 35.390625 -16.78125 35.96875 -14.753906 35.96875 -12.421875 C 35.96875 -9.773438 35.375 -7.441406 34.1875 -5.421875 C 33 -3.410156 31.265625 -1.847656 28.984375 -0.734375 C 26.710938 0.367188 23.929688 0.921875 20.640625 0.921875 C 18.847656 0.921875 17.238281 0.84375 15.8125 0.6875 C 14.382812 0.539062 12.96875 0.390625 11.5625 0.234375 C 10.164062 0.078125 8.617188 0 6.921875 0 L 1.390625 0 L 1.390625 -0.46875 C 2.710938 -0.46875 3.671875 -0.863281 4.265625 -1.65625 C 4.867188 -2.457031 5.25 -3.765625 5.40625 -5.578125 C 5.5625 -7.398438 5.640625 -9.816406 5.640625 -12.828125 L 5.640625 -33.34375 C 5.640625 -36.382812 5.5625 -38.804688 5.40625 -40.609375 C 5.25 -42.410156 4.867188 -43.707031 4.265625 -44.5 C 3.671875 -45.300781 2.710938 -45.703125 1.390625 -45.703125 Z M 9.5625 -45.15625 L 9.5625 -1.203125 C 10.976562 -0.710938 12.316406 -0.34375 13.578125 -0.09375 C 14.835938 0.15625 16.3125 0.28125 18 0.28125 C 20.863281 0.28125 23.34375 -0.21875 25.4375 -1.21875 C 27.53125 -2.21875 29.144531 -3.640625 30.28125 -5.484375 C 31.425781 -7.335938 32 -9.539062 32 -12.09375 C 32 -13.476562 31.804688 -14.835938 31.421875 -16.171875 C 31.035156 -17.515625 30.460938 -18.738281 29.703125 -19.84375 C 28.953125 -20.957031 28.019531 -21.835938 26.90625 -22.484375 C 25.800781 -23.128906 24.53125 -23.453125 23.09375 -23.453125 C 21.789062 -23.453125 20.570312 -23.21875 19.4375 -22.75 C 18.300781 -22.289062 17.234375 -21.832031 16.234375 -21.375 C 15.234375 -20.914062 14.269531 -20.6875 13.34375 -20.6875 C 12.945312 -20.6875 12.578125 -20.804688 12.234375 -21.046875 C 11.898438 -21.296875 11.734375 -21.695312 11.734375 -22.25 C 11.734375 -23.269531 12.144531 -24.164062 12.96875 -24.9375 C 13.800781 -25.707031 14.878906 -26.429688 16.203125 -27.109375 C 17.523438 -27.785156 18.925781 -28.46875 20.40625 -29.15625 C 21.882812 -29.851562 23.285156 -30.628906 24.609375 -31.484375 C 25.929688 -32.347656 27.007812 -33.347656 27.84375 -34.484375 C 28.675781 -35.628906 29.09375 -36.96875 29.09375 -38.5 C 29.09375 -40.414062 28.550781 -41.957031 27.46875 -43.125 C 26.394531 -44.289062 25.003906 -45.132812 23.296875 -45.65625 C 21.585938 -46.1875 19.796875 -46.453125 17.921875 -46.453125 C 16.410156 -46.453125 14.976562 -46.34375 13.625 -46.125 C 12.269531 -45.90625 10.914062 -45.582031 9.5625 -45.15625 Z M 9.5625 -45.15625 "/></g></g></g><g fill="#a33e3e" fill-opacity="1"><g transform="translate(10.642562, 53.850385)"><g><path d="M 29.875 -41.78125 C 29.875 -42.644531 29.734375 -43.5 29.453125 -44.34375 C 29.179688 -45.195312 28.78125 -45.804688 28.25 -46.171875 L 32.828125 -46.171875 C 33.253906 -45.773438 33.59375 -45.175781 33.84375 -44.375 C 34.09375 -43.570312 34.21875 -42.738281 34.21875 -41.875 C 34.21875 -39.84375 33.816406 -38.050781 33.015625 -36.5 C 32.210938 -34.945312 31.140625 -33.59375 29.796875 -32.4375 C 28.460938 -31.28125 27.003906 -30.28125 25.421875 -29.4375 C 23.835938 -28.59375 22.25 -27.859375 20.65625 -27.234375 C 19.070312 -26.617188 17.609375 -26.082031 16.265625 -25.625 C 14.929688 -25.164062 13.863281 -24.734375 13.0625 -24.328125 C 12.257812 -23.929688 11.859375 -23.519531 11.859375 -23.09375 C 11.859375 -22.5625 12.148438 -22.148438 12.734375 -21.859375 C 13.328125 -21.566406 14.109375 -21.289062 15.078125 -21.03125 C 16.046875 -20.769531 17.09375 -20.429688 18.21875 -20.015625 C 19.34375 -19.597656 20.460938 -19.003906 21.578125 -18.234375 C 22.703125 -17.460938 23.710938 -16.414062 24.609375 -15.09375 C 25.679688 -13.5 26.765625 -11.835938 27.859375 -10.109375 C 28.953125 -8.390625 30.078125 -6.804688 31.234375 -5.359375 C 32.390625 -3.910156 33.566406 -2.734375 34.765625 -1.828125 C 35.960938 -0.921875 37.222656 -0.46875 38.546875 -0.46875 L 38.546875 0 L 31.484375 0 C 30.960938 0 30.445312 -0.210938 29.9375 -0.640625 C 29.4375 -1.078125 28.816406 -1.8125 28.078125 -2.84375 C 27.335938 -3.875 26.390625 -5.28125 25.234375 -7.0625 C 24.078125 -8.851562 22.59375 -11.117188 20.78125 -13.859375 C 19.757812 -15.390625 18.78125 -16.609375 17.84375 -17.515625 C 16.90625 -18.429688 16.039062 -19.148438 15.25 -19.671875 C 14.46875 -20.191406 13.789062 -20.601562 13.21875 -20.90625 C 12.65625 -21.21875 12.210938 -21.523438 11.890625 -21.828125 C 11.566406 -22.140625 11.40625 -22.5625 11.40625 -23.09375 C 11.40625 -23.675781 11.734375 -24.226562 12.390625 -24.75 C 13.054688 -25.269531 13.941406 -25.800781 15.046875 -26.34375 C 16.160156 -26.882812 17.367188 -27.476562 18.671875 -28.125 C 19.984375 -28.769531 21.289062 -29.5 22.59375 -30.3125 C 23.90625 -31.125 25.113281 -32.066406 26.21875 -33.140625 C 27.332031 -34.222656 28.21875 -35.472656 28.875 -36.890625 C 29.539062 -38.304688 29.875 -39.9375 29.875 -41.78125 Z M 1.390625 0 L 1.390625 -0.46875 C 2.710938 -0.46875 3.671875 -0.863281 4.265625 -1.65625 C 4.867188 -2.457031 5.25 -3.765625 5.40625 -5.578125 C 5.5625 -7.398438 5.640625 -9.816406 5.640625 -12.828125 L 5.640625 -33.34375 C 5.640625 -36.382812 5.5625 -38.804688 5.40625 -40.609375 C 5.25 -42.410156 4.867188 -43.707031 4.265625 -44.5 C 3.671875 -45.300781 2.710938 -45.703125 1.390625 -45.703125 L 1.390625 -46.171875 L 13.8125 -46.171875 L 13.8125 -45.703125 C 12.476562 -45.703125 11.507812 -45.300781 10.90625 -44.5 C 10.3125 -43.707031 9.9375 -42.410156 9.78125 -40.609375 C 9.632812 -38.804688 9.5625 -36.382812 9.5625 -33.34375 L 9.5625 -12.828125 C 9.5625 -9.816406 9.632812 -7.398438 9.78125 -5.578125 C 9.9375 -3.765625 10.3125 -2.457031 10.90625 -1.65625 C 11.507812 -0.863281 12.476562 -0.46875 13.8125 -0.46875 L 13.8125 0 Z M 1.390625 0 "/></g></g></g></svg>