<?xml version="1.0" standalone="no"?>
<!DOCTYPE svg PUBLIC "-//W3C//DTD SVG 20010904//EN"
 "http://www.w3.org/TR/2001/REC-SVG-20010904/DTD/svg10.dtd">
<svg version="1.0" xmlns="http://www.w3.org/2000/svg"
 width="700.000000pt" height="700.000000pt" viewBox="0 0 700.000000 700.000000"
 preserveAspectRatio="xMidYMid meet">
<metadata>
Created by potrace 1.14, written by Peter Selinger 2001-2017
</metadata>
<g transform="translate(0.000000,700.000000) scale(0.100000,-0.100000)"
fill="#000000" stroke="none">
<path d="M1132 6280 c-4 -3 -8 -12 -9 -21 -2 -12 14 -18 75 -28 153 -25 228
-106 271 -293 23 -98 28 -141 38 -313 10 -169 10 -2808 0 -2988 -18 -341 -70
-498 -186 -572 -34 -21 -106 -41 -171 -47 -17 -2 -25 -9 -25 -23 0 -20 7 -20
578 -21 l577 0 0 23 c0 19 -6 23 -32 24 -18 1 -36 1 -40 0 -17 -2 -97 28 -133
51 -73 46 -120 136 -149 287 -35 181 -39 383 -39 1766 0 1544 5 1696 65 1878
46 140 114 202 248 227 92 17 93 17 82 37 -9 16 -54 17 -577 17 -312 1 -570
-1 -573 -4z"/>
<path d="M3648 6275 c3 -5 21 -29 39 -53 18 -23 45 -80 59 -125 24 -73 28 -98
28 -222 1 -158 -4 -202 -35 -312 -57 -207 -197 -416 -382 -571 l-38 -32 -303
0 c-284 0 -304 -1 -301 -17 2 -10 4 -20 4 -23 1 -3 21 -6 46 -8 64 -3 145 -36
185 -76 35 -34 67 -83 59 -90 -18 -15 -267 -145 -469 -244 -391 -192 -480
-262 -480 -379 0 -83 47 -131 237 -241 278 -161 445 -329 692 -701 l123 -183
-5 -852 c-2 -468 -7 -869 -10 -891 -3 -22 -8 -69 -11 -105 -6 -62 -8 -76 -22
-145 -25 -127 -88 -231 -161 -269 -35 -18 -144 -47 -154 -40 -15 9 -38 -8 -36
-27 1 -18 13 -19 337 -20 393 -1 477 -4 650 -24 19 -2 63 -7 97 -10 34 -3 70
-7 80 -9 10 -2 56 -7 103 -11 47 -4 94 -9 105 -11 111 -22 629 -22 741 0 12 2
39 7 60 10 430 68 779 313 939 659 32 69 79 214 90 279 31 173 29 415 -4 548
-26 104 -103 263 -170 351 -181 238 -476 401 -806 445 -77 10 -281 12 -338 3
-97 -16 -112 -19 -157 -33 -65 -20 -264 -102 -335 -138 -132 -67 -249 -97
-302 -77 -35 13 -83 91 -78 127 16 130 139 208 555 349 8 3 92 31 185 63 685
234 975 422 1133 735 73 146 92 414 41 585 -94 312 -427 509 -924 547 -153 12
-516 5 -615 -11 -14 -3 -56 -7 -95 -11 -143 -12 -200 -17 -220 -21 -12 -2 11
27 60 78 105 107 96 96 161 194 93 140 150 293 172 461 9 69 8 238 -2 293 -17
89 -58 192 -97 239 -20 25 -20 25 -229 25 -136 1 -206 -2 -202 -9z m842 -1305
c143 -20 263 -50 360 -92 61 -26 122 -58 141 -74 8 -8 21 -14 27 -14 7 0 49
-37 95 -82 129 -128 175 -238 182 -433 8 -216 -54 -366 -223 -532 -129 -126
-281 -223 -592 -374 -467 -227 -585 -295 -685 -394 -51 -50 -105 -137 -105
-170 0 -29 -15 -15 -61 58 -25 39 -70 109 -99 155 l-53 83 1 827 c0 455 1 834
1 843 1 8 19 28 42 42 23 15 67 45 98 67 49 34 72 43 162 60 138 25 159 28
259 36 47 4 86 7 87 9 9 6 292 -5 363 -15z m-1415 -421 c3 -13 8 -53 11 -89 3
-36 8 -78 10 -95 2 -16 7 -196 10 -400 6 -316 5 -368 -7 -359 -125 100 -247
173 -369 221 -42 17 -287 101 -298 103 -37 4 -203 60 -245 81 -91 47 -111 134
-43 191 32 27 168 90 286 133 58 20 121 43 140 51 19 7 114 42 210 77 96 36
200 76 230 90 30 13 56 23 58 22 1 -1 5 -13 7 -26z m1837 -1728 c497 -119 784
-800 602 -1430 -19 -66 -89 -211 -134 -276 -187 -272 -534 -449 -945 -483
-106 -9 -340 -7 -409 2 -23 4 -63 9 -91 12 -129 15 -454 105 -456 127 -4 55
-3 1650 1 1652 3 1 29 -34 59 -79 127 -189 234 -311 306 -349 38 -20 54 -21
393 -22 l352 -2 0 24 c0 19 -5 23 -30 23 -85 0 -199 42 -302 111 -63 43 -266
238 -326 314 -84 107 -101 130 -98 132 2 2 23 6 47 8 88 9 149 28 264 80 166
77 328 137 409 154 101 21 277 22 358 2z"/>
</g>
</svg>
